<svg height="512" viewBox="0 0 512 512" width="512" xmlns="http://www.w3.org/2000/svg"><g id="Filled_outline" data-name="Filled outline"><g fill="#485870"><circle cx="40" cy="472" r="16"/><circle cx="104" cy="472" r="16"/><circle cx="408" cy="472" r="16"/><circle cx="472" cy="472" r="16"/></g><path d="m24 432h96v32h-96z" fill="#e0e0de"/><path d="m56 216h32v216h-32z" fill="#d6d6d4"/><path d="m24 104h464v112h-464z" fill="#e0e0de"/><path d="m488 104v112h-327.2c85.74-23.05 165.19-58.97 229.25-112z" fill="#d6d6d4"/><path d="m24 24h32v80h-32z" fill="#4db7e5"/><path d="m56 24h32v80h-32z" fill="#d3669a"/><path d="m88 24h32v80h-32z" fill="#ffb531"/><path d="m120 24h32v80h-32z" fill="#4d5e78"/><path d="m24 104v-16h32v16" fill="#4aafdb"/><path d="m56 104v-16h32v16" fill="#cc5e92"/><path d="m88 104v-16h32v16" fill="#ffa912"/><path d="m120 88h32v16h-32z" fill="#485870"/><path d="m152 24h64v80h-64z" fill="#404f66"/><path d="m216 104h-64v-16l48-64h16z" fill="#3b495e"/><path d="m96 152h312v64h-312z" fill="#4d5e78"/><path d="m392 432h96v32h-96z" fill="#e0e0de"/><path d="m424 216h32v216h-32z" fill="#d6d6d4"/><path d="m56 216h32v16h-32z" fill="#c7c7c5"/><path d="m424 216h32v16h-32z" fill="#c7c7c5"/><path d="m392 184a24.006 24.006 0 0 0 -24 24v227.16a95.3 95.3 0 0 1 -16 52.84h-248a95.331 95.331 0 0 0 16-52.84v-227.16a24.006 24.006 0 0 1 24-24z" fill="#b73e7e"/><path d="m368 328v107.16a95.3 95.3 0 0 1 -16 52.84h-248a95.331 95.331 0 0 0 16-52.84v-67.16l48-48 24 16 40-64 40 40 24-24 32 32 16-16z" fill="#c7568c"/><path d="m368 408v27.16a95.3 95.3 0 0 1 -16 52.84h-248a95.331 95.331 0 0 0 16-52.84v-19.16l40-40 24 32 32-24 24 16 40-40 32 32 24-16z" fill="#d3669a"/><path d="m488 224a8 8 0 0 0 8-8v-112a8 8 0 0 0 -8-8h-264v-72a8 8 0 0 0 -8-8h-192a8 8 0 0 0 -8 8v56h16v-48h16v64h-24a8 8 0 0 0 -8 8v112a8 8 0 0 0 8 8h24v200h-24a8 8 0 0 0 -8 8v32a7.955 7.955 0 0 0 .555 2.911 24 24 0 1 0 47.445 5.089h24v-16h-56v-16h64v-232h-64v-96h448v96h-64v-56a8 8 0 0 0 -8-8h-312a8 8 0 0 0 -8 8v40h16v-32h296v16h-256a32.036 32.036 0 0 0 -32 32v227.155a86.994 86.994 0 0 1 -14.656 48.407 8 8 0 0 0 6.656 12.438h248a8 8 0 0 0 6.656-3.562 102.942 102.942 0 0 0 17.344-57.283v-211.155h40v200h-24a8 8 0 0 0 -8 8v32a7.955 7.955 0 0 0 .555 2.911 24 24 0 1 0 47.445 5.089h16a24 24 0 1 0 47.445-5.089 7.955 7.955 0 0 0 .555-2.911v-32a8 8 0 0 0 -8-8h-24v-200zm-448 256a8.009 8.009 0 0 1 -8-8h16a8.009 8.009 0 0 1 -8 8zm40-256v200h-16v-200zm-16-192h16v64h-16zm32 0h16v64h-16zm32 0h16v64h-16zm32 64v-64h48v64zm-16 96h220.3a31.8 31.8 0 0 0 -4.3 16v100.686l-10.343-10.343a8 8 0 0 0 -11.314 0l-10.343 10.344-26.343-26.344a8 8 0 0 0 -11.314 0l-18.343 18.344-34.343-34.344a8 8 0 0 0 -12.441 1.417l-35.633 57.013-17.145-11.429a8 8 0 0 0 -10.095 1l-34.343 34.342v-140.686a16.019 16.019 0 0 1 16-16zm-16 179.314 41.02-41.02 18.542 12.362a8 8 0 0 0 11.222-2.416l34.67-55.472 32.889 32.889a8 8 0 0 0 11.314 0l18.343-18.344 26.343 26.344a8 8 0 0 0 11.314 0l10.343-10.344 16 16v57.372l-18.343-18.343a8 8 0 0 0 -10.095-1l-18.542 12.364-27.363-27.363a8 8 0 0 0 -11.314 0l-35.363 35.363-18.542-12.362a8 8 0 0 0 -9.238.256l-25.6 19.2-19.2-25.6a8 8 0 0 0 -12.057-.857l-26.343 26.343zm219.6 108.686h-229.837a102.928 102.928 0 0 0 10.237-44.845v-15.841l31.135-31.134 18.465 24.62a8 8 0 0 0 11.2 1.6l27.471-20.6 19.291 12.86a8 8 0 0 0 10.095-1l34.343-34.347 26.343 26.344a8 8 0 0 0 10.095 1l18.542-12.362 25.02 25.019v23.841a86.96 86.96 0 0 1 -12.4 44.845zm28.4-272a16.019 16.019 0 0 1 16-16h8v16zm32 272a8.009 8.009 0 0 1 -8-8h16a8.009 8.009 0 0 1 -8 8zm64 0a8.009 8.009 0 0 1 -8-8h16a8.009 8.009 0 0 1 -8 8zm8-24h-80v-16h80zm-32-32h-16v-200h16z"/><path d="m432 176h16v16h-16z"/><path d="m432 144h16v16h-16z"/><path d="m144 448h32v16h-32z"/><path d="m192 448h16v16h-16z"/><path d="m288 448h48v16h-48z"/><path d="m144 216h48v16h-48z"/><path d="m144 248h48v16h-48z"/><path d="m144 280h32v16h-32z"/><path d="m304 216h40v16h-40z"/><path d="m328 248h16v16h-16z"/></g></svg>